<svg width="61" height="61" viewBox="0 0 61 61" fill="none" xmlns="http://www.w3.org/2000/svg">
<path d="M10.4095 30.6524C10.4031 29.9884 10.6314 29.3612 11.0956 28.8879L14.6156 25.2989L28.6185 11.0218C29.0827 10.5486 29.7054 10.3081 30.3694 10.3017C31.0334 10.2953 31.6607 10.5236 32.1339 10.9877L35.7229 14.5078C36.1962 14.972 36.4757 15.5943 36.4821 16.2583C36.4886 16.9224 36.2212 17.55 35.757 18.0233L28.4461 25.4773L48.0546 25.2872C49.4217 25.2739 50.5655 26.3957 50.5787 27.7628L50.6272 32.7626C50.6404 34.1297 49.5187 35.2735 48.1515 35.2867L28.5431 35.4768L35.9971 42.7877C36.4704 43.2519 36.7108 43.8746 36.7173 44.5386C36.7237 45.2027 36.4954 45.8299 36.0312 46.3032L32.5112 49.8922C32.047 50.3654 31.4243 50.6059 30.7603 50.6123C30.0962 50.6187 29.469 50.3904 28.9957 49.9263L14.7186 35.9234L11.1297 32.4033C10.6564 31.9392 10.416 31.3165 10.4095 30.6524ZM0.605293 30.7475C0.765878 47.3092 14.333 60.6158 30.8948 60.4552C47.4565 60.2946 60.7631 46.7275 60.6025 30.1657C60.4419 13.604 46.8747 0.297443 30.313 0.458028C13.7513 0.618613 0.444708 14.1858 0.605293 30.7475Z" fill="white"/>
</svg>
