<svg width="61" height="61" viewBox="0 0 61 61" fill="none" xmlns="http://www.w3.org/2000/svg">
<path d="M50.8361 30.2179C50.8466 30.8819 50.6221 31.5105 50.1608 31.9866L46.6626 35.5969L32.7469 49.959C32.2856 50.435 31.6644 50.6793 31.0004 50.6897C30.3364 50.7002 29.7078 50.4757 29.2317 50.0144L25.6214 46.5163C25.1453 46.055 24.862 45.4344 24.8515 44.7704C24.8411 44.1064 25.1046 43.4772 25.5659 43.0011L32.8313 35.5027L13.2244 35.8121C11.8573 35.8337 10.7068 34.7189 10.6852 33.3519L10.6063 28.3525C10.5847 26.9855 11.6995 25.835 13.0665 25.8134L32.6735 25.5039L25.1751 18.2386C24.699 17.7773 24.4548 17.156 24.4443 16.4921C24.4338 15.8281 24.6583 15.1995 25.1196 14.7234L28.6178 11.113C29.079 10.6369 29.7003 10.3927 30.3643 10.3822C31.0282 10.3718 31.6569 10.5963 32.1329 11.0575L46.495 24.9733L50.1053 28.4714C50.5814 28.9327 50.8256 29.5539 50.8361 30.2179ZM60.6395 30.0632C60.3782 13.5027 46.7303 0.278973 30.1699 0.540341C13.6094 0.80171 0.385642 14.4496 0.64701 31.01C0.908378 47.5705 14.5563 60.7942 31.1167 60.5329C47.6771 60.2715 60.9009 46.6236 60.6395 30.0632Z" fill="white"/>
</svg>
